<?xml version="1.0" encoding="utf-8"?>
<!-- Generator: Adobe Illustrator 19.2.1, SVG Export Plug-In . SVG Version: 6.00 Build 0)  -->
<svg version="1.1" id="Layer_1" xmlns="http://www.w3.org/2000/svg" xmlns:xlink="http://www.w3.org/1999/xlink" x="0px" y="0px"
	 viewBox="0 0 395.6 395.6" style="enable-background:new 0 0 395.6 395.6;" xml:space="preserve">
<style type="text/css">
	.st0{fill:#FFFFFF;}
	.st1{fill:#193651;}
	.st2{fill:#4FBF9F;}
</style>
<path class="st0" d="M389.4,197.8L389.4,197.8c0,105.7-85.9,191.6-191.6,191.6l0,0C92.1,389.4,6.2,303.5,6.2,197.8l0,0
	C6.2,92.1,92.1,6.2,197.8,6.2l0,0C303.5,6.2,389.4,92.1,389.4,197.8z"/>
<g>
	<rect x="279.4" y="185.5" class="st1" width="12.3" height="12.3"/>
	<rect x="103.8" y="185.5" class="st1" width="12.3" height="12.3"/>
	<path class="st1" d="M197.8,180.5L197.8,180.5c-9.9,0-19.1-3.7-26.6-11.1c-6.8-6.8-11.1-16.7-11.1-26.6c0-20.4,16.7-37.1,37.1-37.1
		s37.1,16.7,37.1,37.1C234.9,163.8,218.2,180.5,197.8,180.5L197.8,180.5z M197.8,118.7c-13.6,0-24.8,11.1-24.8,24.8
		c0,6.8,2.5,13,7.4,17.9c4.9,4.9,11.1,7.4,17.9,7.4l0,0c13.6,0,24.8-11.1,24.8-24.8C223.2,130.4,211.4,118.7,197.8,118.7z"/>
	<path class="st1" d="M236.2,199h-76.7c-17.3,0-30.9,13.6-30.9,30.9v32.8c18.6,17.3,41.4,26.6,69.2,27.2l0,0
		c26.6,0,49.5-9.2,69.2-27.2v-32.8C267.1,212.7,253.5,199,236.2,199z M140.9,257.2v-27.2c0-10.5,8-18.6,18.6-18.6h76.7
		c10.5,0,18.6,8,18.6,18.6v27.2c-16.1,13-34.6,19.8-56.9,20.4C174.9,276.3,156.4,269.5,140.9,257.2z"/>
</g>
<path class="st2" d="M159.5,229.9v17.3c26,14.9,51.3,14.9,76.7,0v-17.9L159.5,229.9z"/>
<g>
	<path class="st1" d="M191.6,308.5c-58.7-3.1-105.1-51.9-105.1-110.7c0-39.6,21-76.7,55.7-96.5L136,90.8
		c-38.3,22.2-61.8,63-61.8,106.9c0,66.1,51.9,119.9,117.5,123v0.6H204v-18.6h-12.3L191.6,308.5L191.6,308.5z"/>
	<path class="st1" d="M197.8,0C89,0,0,89,0,197.8s89,197.8,197.8,197.8s197.8-89,197.8-197.8C395.6,98.3,317.2,2.5,197.8,0z
		 M197.8,346.2c-69.2,0-129.8-48.8-144.7-116.2l-12.3,2.5c15.5,71.1,78.5,123,150.8,126.1v24.8C92.1,379.6,12.3,298,12.3,197.8
		c0-48.8,19.1-93.3,50.1-126.7l17.3,17.3c-26.6,29-42.7,67.4-42.7,109.4h12.3c0-81.6,66.8-148.4,148.4-148.4
		c39.6,0,76.7,15.5,105.1,43.2c26.6,26.6,42,61.2,43.2,98.9h-24.8C317.7,128.6,267.1,78,204,74.2l0,0h-12.3v18.6H204v-5.6
		c58.7,3.1,105.1,51.9,105.1,110.7c0,39.6-21,76.7-55.7,96.5l6.2,10.5c36.5-21,59.3-59.3,61.8-100.8h24.8
		C342.5,283.2,277.6,346.2,197.8,346.2z M204,383.3v-24.8c85.9-3.1,154.6-74.2,154.6-160.7c0-42.7-16.7-83.5-47-113.7
		c-30.3-30.3-71.1-47-113.8-47c-42,0-80.4,16.1-109.4,42.7L71.1,62.4c33.4-30.9,77.9-50.1,126.7-50.1
		c107.6,1.2,184.8,85.9,185.5,185.5C383.3,298,303.5,379.5,204,383.3z"/>
</g>
</svg>
