<?xml version="1.0" encoding="utf-8"?>
<!-- Generator: Adobe Illustrator 19.2.1, SVG Export Plug-In . SVG Version: 6.00 Build 0)  -->
<svg version="1.1" id="Layer_1" xmlns="http://www.w3.org/2000/svg" xmlns:xlink="http://www.w3.org/1999/xlink" x="0px" y="0px"
	 viewBox="0 0 489.6 489.6" style="enable-background:new 0 0 489.6 489.6;" xml:space="preserve">
<style type="text/css">
	.st0{fill:#193651;}
	.st1{fill:#4FBF9F;}
</style>
<g>
	<g>
		<path class="st0" d="M170.3,189.3v66.5c-15.2,7.6-63.6,33.2-108.5,70.1c-10.8,8.8-16.9,21.9-16.9,35.9v52.9c0,5,4.1,9.1,9.1,9.1
			s9.1-4.1,9.1-9.1v-52.9c0-8.5,3.8-16.5,10.3-21.9c47.2-38.8,98.4-64.6,108.1-69.4c4.3-2.1,7-6.5,7-11.2v-74.5c0-3-1.5-5.9-4-7.5
			c-7.2-4.8-11.5-12.8-11.5-21.4V78.6c0-33.4,27.1-60.5,60.5-60.5h16.6c33.4,0,60.5,27.1,60.5,60.5v77.2c0,8.6-4.3,16.6-11.5,21.4
			c-2.5,1.7-4,4.5-4,7.5v74.5c0,4.7,2.8,9.2,7,11.2c9.8,4.8,60.9,30.6,108.1,69.4c6.5,5.4,10.3,13.4,10.3,21.9v53
			c0,5,4.1,9.1,9.1,9.1s9.1-4.1,9.1-9.1v-52.9c0-14-6.2-27.1-16.9-35.9c-44.9-36.9-93.3-62.4-108.5-70.1v-66.5
			c9.8-8.3,15.5-20.5,15.5-33.5V78.6c0-43.4-35.3-78.6-78.6-78.6h-16.6C190.2,0,155,35.3,155,78.6v77.2
			C154.8,168.8,160.5,181,170.3,189.3z"/>
		<path class="st0" d="M277.4,340c-13,0-25.3,5.1-34.5,14.3l-1.2,1.2l-1.2-1.2C231.3,345.1,219,340,206,340s-25.2,5.1-34.4,14.3
			c-9.2,9.2-14.3,21.4-14.3,34.5c0,13,5.1,25.2,14.3,34.4l63.6,63.6l0.1,0.1c1.7,1.7,4,2.7,6.4,2.7l0,0c2.4,0,4.7-1,6.4-2.7
			l63.6-63.6c9.2-9.2,14.3-21.4,14.3-34.4s-5-25.3-14.3-34.5C302.6,345.1,290.4,340,277.4,340z M298.9,410.4l-57.2,57.2l-57.3-57.3
			c-5.8-5.8-9-13.5-9-21.6c0-8.2,3.2-15.8,8.9-21.6c5.8-5.8,13.4-8.9,21.6-8.9c8.2,0,15.9,3.2,21.7,9l7.7,7.7c1.7,1.7,4,2.7,6.4,2.7
			s4.7-1,6.4-2.7l7.6-7.6c5.8-5.8,13.5-9,21.6-9c8.2,0,15.8,3.2,21.6,9c5.8,5.8,9,13.5,8.9,21.6
			C307.9,396.9,304.7,404.6,298.9,410.4z"/>
		<path id="XMLID_11967_" class="st1" d="M305.3,416.8l-63.6,63.6l-0.1-0.1l0,0l-63.5-63.6c-15.5-15.5-15.5-40.6,0-56.1
			s40.6-15.4,56.1,0l7.7,7.7l7.6-7.6c15.5-15.5,40.6-15.5,56.1,0C320.9,376.2,320.8,401.3,305.3,416.8z"/>
	</g>
</g>
</svg>
